#!OML:ASF F:\VICON\USERDATA\INSTALL\rory3\rory3.ASF
:FULLY-SPECIFIED
:DEGREES
162
root 5.21512 15.6441 -9.41793 246.283 25.4398 -133.235
lowerback 15.7022 0.411943 -12.6297
upperback -1.39434 -2.03523 -10.3698
thorax -10.4188 -0.274611 -3.96358
lowerneck -24.4339 5.36147 -2.90218
upperneck 10.5274 6.86208 10.5905
head 6.66992 4.35618 4.82511
rclavicle -1.90833e-014 2.24229e-013
rhumerus -22.5474 -13.908 -1.62051
rradius 33.2953
rwrist -4.39993
rhand -28.6922 -60.1402
rfingers 7.12502
rthumb 177.946 270.11
lclavicle -1.90833e-014 2.24229e-013
lhumerus 6.13751 13.7477 21.9872
lradius 34.982
lwrist 46.8162
lhand -45.9335 -738.51
lfingers 7.12502
lthumb -18.6817 10.6129
rfemur -35.5664 -11.8677 47.3882
rtibia 49.2814
rfoot -2.8359 -7.52548
rtoes -20.588
lfemur -82.708 18.9452 -5.30707
ltibia 67.5931
lfoot -33.0706 32.9472
ltoes 18.65
163
root 5.19007 15.6349 -9.3043 246.273 27.2264 -133.752
lowerback 14.8153 0.291651 -12.5585
upperback -1.46092 -2.01317 -10.3991
thorax -9.98018 -0.279719 -4.01499
lowerneck -25.0679 5.46889 -2.40412
upperneck 11.8324 6.79403 10.2857
head 7.23155 4.33158 4.724
rclavicle 6.99722e-014 2.19458e-013
rhumerus -21.8568 -13.4562 -2.65275
rradius 33.5044
rwrist -4.31923
rhand -29.1176 -59.3747
rfingers 7.12502
rthumb 177.535 90.6598
lclavicle 6.99722e-014 2.19458e-013
lhumerus 5.39816 13.8128 23.0059
lradius 34.8962
lwrist 46.1464
lhand -44.9577 -736.256
lfingers 7.12502
lthumb -17.743 12.9547
rfemur -36.4839 -12.2811 47.216
rtibia 50.2114
rfoot -3.65974 -7.72947
rtoes -20.4252
lfemur -83.1298 18.9419 -6.87918
ltibia 67.6626
lfoot -32.2249 32.852
ltoes 18.7504
164
root 5.16232 15.6229 -9.19078 246.174 28.9389 -134.213
lowerback 14.0203 0.232689 -12.4429
upperback -1.47447 -1.91992 -10.3233
thorax -9.53307 -0.256777 -3.9865
lowerneck -25.8968 5.59919 -1.89075
upperneck 13.177 6.79443 9.60267
head 7.85219 4.29314 4.51049
rclavicle -9.22361e-014 -1.55847e-013
rhumerus -21.1884 -13.2423 -3.41674
rradius 33.6382
rwrist -4.01161
rhand -30.2123 -58.7642
rfingers 7.12502
rthumb 176.478 91.2852
lclavicle -9.22361e-014 -1.55847e-013
lhumerus 5.02989 13.3085 23.8579
lradius 34.7467
lwrist 45.5122
lhand -44.6488 -726.495
lfingers 7.12502
lthumb -17.4456 22.7425
rfemur -37.3078 -12.8025 47.1866
rtibia 51.2914
rfoot -4.34543 -8.21383
rtoes -21.446
lfemur -83.3647 18.9411 -8.29406
ltibia 67.7883
lfoot -30.9878 32.9423
ltoes 16.9716
165
root 5.12982 15.6049 -9.07238 245.827 30.5289 -134.695
lowerback 13.4428 0.00831897 -12.2689
upperback -1.37148 -2.05152 -10.3679
thorax -9.08254 -0.341107 -4.07861
lowerneck -25.9741 5.72989 -1.45039
upperneck 13.2896 6.83721 9.474
head 7.92097 4.32585 4.41307
rclavicle 2.22639e-014 -1.43125e-014
rhumerus -20.2707 -13.5164 -4.6783
rradius 33.6883
rwrist -3.26354
rhand -30.7442 -58.6257
rfingers 7.12502
rthumb 175.964 91.4328
lclavicle 2.22639e-014 -1.43125e-014
lhumerus 4.1089 13.5294 24.5082
lradius 34.8283
lwrist 44.0447
lhand -44.8389 -727.043
lfingers 7.12502
lthumb -17.6286 22.178
rfemur -37.8666 -13.3019 47.1484
rtibia 52.4624
rfoot -5.06262 -8.8354
rtoes -20.5322
lfemur -83.3553 18.8569 -9.49855
ltibia 67.8881
lfoot -29.7961 32.858
ltoes 14.8516
166
root 5.09407 15.5913 -8.95768 245.269 31.931 -135.079
lowerback 13.1945 0.183807 -11.7591
upperback -1.36693 -1.7172 -10.1857
thorax -8.94635 -0.222189 -4.21102
lowerneck -25.695 5.25307 -2.23254
upperneck 13.6323 6.37139 9.69306
head 7.98796 4.0771 4.55279
rclavicle -5.40694e-014 2.06736e-014
rhumerus -20.186 -12.9709 -4.87953
rradius 33.9348
rwrist -3.26588
rhand -30.0884 -58.7622
rfingers 7.12502
rthumb 176.597 91.2853
lclavicle -5.40694e-014 2.06736e-014
lhumerus 3.8069 13.8777 26.247
lradius 35.1003
lwrist 42.3305
lhand -44.5539 -734.594
lfingers 7.12502
lthumb -17.3543 14.6514
rfemur -38.0527 -13.7404 47.2524
rtibia 53.6115
rfoot -5.48752 -9.8728
rtoes -20.1931
lfemur -83.1271 18.8624 -10.5197
ltibia 67.9285
lfoot -29.5321 32.252
ltoes 14.9572
167
root 5.05352 15.5917 -8.8462 244.861 33.3971 -135.226
lowerback 12.8955 0.158282 -11.4364
upperback -1.39222 -1.66429 -10.062
thorax -8.80533 -0.222076 -4.24983
lowerneck -24.5948 5.47101 -2.12844
upperneck 13.2701 6.75544 8.90237
head 7.68871 4.14302 4.24662
rclavicle -2.54444e-014 4.77083e-015
rhumerus -19.553 -12.7756 -5.80495
rradius 34.1608
rwrist -2.87429
rhand -30.8431 -58.1049
rfingers 7.12502
rthumb 175.868 91.9554
lclavicle -2.54444e-014 4.77083e-015
lhumerus 2.75752 13.5395 26.9649
lradius 35.3249
lwrist 40.9938
lhand -44.6306 -743.206
lfingers 7.12502
lthumb -17.4282 6.03231
rfemur -38.0748 -13.7314 47.3852
rtibia 54.6767
rfoot -5.29602 -11.3333
rtoes -21.3709
lfemur -82.9033 19.095 -11.5305
ltibia 67.9306
lfoot -29.7756 31.8156
ltoes 16.1094
168
root 5.01002 15.5938 -8.7393 244.541 34.8739 -135.257
lowerback 12.4234 -0.0634134 -11.0336
upperback -1.06601 -1.76442 -10.0348
thorax -8.17484 -0.311956 -4.38535
lowerneck -26.1986 5.33173 -2.22612
upperneck 13.7341 6.45056 9.74116
head 8.09648 4.12621 4.60526
rclavicle 7.63333e-014 6.36111e-014
rhumerus -18.2567 -13.852 -7.08187
rradius 34.1977
rwrist -1.23566
rhand -30.9734 -57.7694
rfingers 7.12502
rthumb 175.743 92.2934
lclavicle 7.63333e-014 6.36111e-014
lhumerus 1.90308 13.9909 27.087
lradius 35.7478
lwrist 39.9883
lhand -44.754 -743.513
lfingers 7.12502
lthumb -17.5469 5.71546
rfemur -37.8624 -13.3723 47.4003
rtibia 55.5396
rfoot -5.03525 -12.4651
rtoes -21.0997
lfemur -82.7146 19.4485 -12.5856
ltibia 67.8934
lfoot -29.7519 31.8426
ltoes 16.615
169
root 4.96626 15.5755 -8.63547 244.072 36.1554 -135.283
lowerback 12.2884 0.390519 -9.8825
upperback -1.31612 -1.06498 -9.75703
thorax -8.39122 -0.0450729 -4.85278
lowerneck -23.7602 4.94495 -3.07397
upperneck 13.223 6.33221 8.64491
head 7.53865 3.83362 4.21708
rclavicle 4.45278e-014 -1.90833e-014
rhumerus -18.6492 -11.8551 -6.50576
rradius 34.718
rwrist -3.09304
rhand -31.4081 -57.1465
rfingers 7.12502
rthumb 175.323 92.9251
lclavicle 4.45278e-014 -1.90833e-014
lhumerus 1.75355 12.7618 28.7923
lradius 36.042
lwrist 38.8248
lhand -44.9871 -742.296
lfingers 7.12502
lthumb -17.7712 6.9118
rfemur -37.3593 -13.0726 47.4332
rtibia 56.1998
rfoot -4.78703 -12.8712
rtoes -20.9667
lfemur -82.5169 19.9522 -13.6954
ltibia 67.8795
lfoot -29.4035 31.8005
ltoes 16.4369
170
root 4.92227 15.5832 -8.53753 243.601 37.3862 -135.292
lowerback 12.1825 0.0900066 -9.01552
upperback -1.15782 -1.30226 -9.99838
thorax -8.18182 -0.206243 -5.54671
lowerneck -24.543 5.15133 -1.85912
upperneck 13.9788 6.22483 8.53486
head 7.97445 3.85908 4.043
rclavicle 0 -2.8625e-014
rhumerus -17.6918 -11.9731 -8.28845
rradius 35.0252
rwrist -3.2331
rhand -30.2506 -56.8904
rfingers 7.12502
rthumb 176.441 93.1595
lclavicle 0 -2.8625e-014
lhumerus 1.21456 12.7829 28.2669
lradius 36.1822
lwrist 37.6771
lhand -45.2823 -742.5
lfingers 7.12502
lthumb -18.0553 6.68239
rfemur -36.6682 -12.842 47.4978
rtibia 56.4502
rfoot -4.26042 -12.5001
rtoes -22.146
lfemur -81.9576 20.1209 -14.2526
ltibia 67.6802
lfoot -29.1814 31.9348
ltoes 17.2754
171
root 4.8807 15.6076 -8.44587 243.132 38.6933 -135.372
lowerback 12.1858 -0.126136 -8.67064
upperback -1.12568 -1.54679 -9.87744
thorax -8.15988 -0.344099 -5.55334
lowerneck -26.2582 5.18552 -2.207
upperneck 16.1813 6.18024 9.1636
head 8.98235 3.92757 4.48207
rclavicle -1.33583e-013 5.40694e-014
rhumerus -16.6017 -11.9836 -9.59473
rradius 35.4823
rwrist -2.69434
rhand -29.8322 -56.2344
rfingers 7.12502
rthumb 176.845 93.8092
lclavicle -1.33583e-013 5.40694e-014
lhumerus 0.285569 12.85 28.2579
lradius 36.1322
lwrist 35.9286
lhand -45.5034 -743.298
lfingers 7.12502
lthumb -18.268 5.86406
rfemur -35.9092 -12.6439 47.4358
rtibia 56.3886
rfoot -4.23103 -12.0546
rtoes -24.0489
lfemur -81.381 20.2993 -14.8741
ltibia 67.4181
lfoot -28.9012 31.9514
ltoes 19.1328
172
root 4.84196 15.6381 -8.356 242.65 40.1433 -135.509
lowerback 12.0888 -0.0786814 -8.50985
upperback -1.05666 -1.45428 -9.5794
thorax -8.01855 -0.315958 -5.31767
lowerneck -26.2703 5.43222 -1.42908
upperneck 16.2105 6.62164 6.87913
head 9.06838 3.87223 3.62108
rclavicle 4.77083e-014 -3.18055e-014
rhumerus -15.9947 -11.9844 -10.0316
rradius 36.1237
rwrist -1.7424
rhand -28.8354 -55.655
rfingers 7.12502
rthumb 177.807 94.3766
lclavicle 4.77083e-014 -3.18055e-014
lhumerus -0.19683 12.9857 29.0615
lradius 36.2504
lwrist 34.2481
lhand -45.5786 -741.638
lfingers 7.12502
lthumb -18.3403 7.51695
rfemur -35.0097 -12.2746 47.2385
rtibia 55.9689
rfoot -5.23055 -12.5107
rtoes -26.1493
lfemur -80.6207 20.4264 -15.6146
ltibia 67.0261
lfoot -28.6714 32.1129
ltoes 19.2974
173
root 4.8086 15.6385 -8.25972 242.289 41.6274 -135.632
lowerback 11.7507 0.234115 -7.96757
upperback -1.31729 -0.972529 -9.50946
thorax -8.10318 -0.116623 -5.63756
lowerneck -24.5971 4.59409 -2.87144
upperneck 16.1214 5.73432 8.14048
head 8.71933 3.5102 4.09465
rclavicle -6.36111e-015 0
rhumerus -16.6586 -10.9681 -10.0037
rradius 36.9344
rwrist -1.31903
rhand -28.0501 -55.0112
rfingers 7.12502
rthumb 178.566 95.0139
lclavicle -6.36111e-015 0
lhumerus -0.307883 11.593 29.9955
lradius 36.4433
lwrist 33.6299
lhand -45.0372 -741.772
lfingers 7.12502
lthumb -17.8195 7.43144
rfemur -34.1384 -11.9119 47.0646
rtibia 55.3021
rfoot -5.83595 -16.714
rtoes -26.9452
lfemur -80.2318 20.8691 -16.7549
ltibia 66.731
lfoot -28.1163 32.1265
ltoes 17.7941
174
root 4.77788 15.6608 -8.17364 241.776 43.1806 -136.083
lowerback 11.468 0.490672 -7.78329
upperback -1.44002 -0.598657 -9.31439
thorax -8.05857 0.0486337 -5.58778
lowerneck -25.1761 4.01992 -3.71905
upperneck 17.7912 5.12534 8.41502
head 9.40496 3.20658 4.34152
rclavicle -6.04305e-014 -6.04305e-014
rhumerus -16.7977 -10.1481 -9.80116
rradius 37.4724
rwrist -1.18928
rhand -28.3192 -54.2012
rfingers 7.12502
rthumb 178.306 95.8257
lclavicle -6.04305e-014 -6.04305e-014
lhumerus -0.394408 10.5474 31.1625
lradius 36.5211
lwrist 33.143
lhand -44.6313 -744.079
lfingers 7.12502
lthumb -17.4288 5.15932
rfemur -33.353 -11.91 46.685
rtibia 54.3892
rfoot -11.0396 -20.2027
rtoes -21.8904
lfemur -79.8026 21.1582 -18.126
ltibia 66.3024
lfoot -27.0444 32.2334
ltoes 17.3006
